<svg width="30" height="30" viewBox="0 0 30 30" fill="none" xmlns="http://www.w3.org/2000/svg">
<path d="M8.40636 22.677V23.41C8.18802 23.1882 8.09595 22.955 8.09595 22.677V7.32284C8.09595 7.01916 8.19532 6.77787 8.41482 6.55837C8.63925 6.33394 8.87479 6.2395 9.15636 6.2395H17.1415L21.9272 11.0252V22.677C21.9272 22.9586 21.8328 23.1941 21.6083 23.4185C21.3888 23.638 21.1475 23.7374 20.8439 23.7374H9.15636C8.87835 23.7374 8.64522 23.6454 8.42334 23.427H9.15636H20.8439H21.5939V22.677V11.5853V10.8353H20.8439H17.2626V7.32284V6.57284H16.5126H9.15636H8.40636V7.32284V11.5853V22.677Z" fill="#1B1C1E" stroke="#1B1C1E" stroke-width="1.5"/>
</svg>
