<svg width="21" height="22" viewBox="0 0 21 22" fill="none" xmlns="http://www.w3.org/2000/svg">
<path d="M9.6749 16.15H11.4749V10H9.6749V16.15ZM10.4999 8.35C10.7999 8.35 11.0457 8.25417 11.2374 8.0625C11.4291 7.87083 11.5249 7.63333 11.5249 7.35C11.5249 7.03333 11.4291 6.77917 11.2374 6.5875C11.0457 6.39583 10.7999 6.3 10.4999 6.3C10.1999 6.3 9.95407 6.39583 9.7624 6.5875C9.57074 6.77917 9.4749 7.03333 9.4749 7.35C9.4749 7.63333 9.57074 7.87083 9.7624 8.0625C9.95407 8.25417 10.1999 8.35 10.4999 8.35ZM10.4999 21.35C9.03324 21.35 7.67074 21.0875 6.4124 20.5625C5.15407 20.0375 4.05824 19.3083 3.1249 18.375C2.19157 17.4417 1.4624 16.3458 0.937402 15.0875C0.412402 13.8292 0.149902 12.4667 0.149902 11C0.149902 9.55 0.412402 8.19167 0.937402 6.925C1.4624 5.65833 2.19157 4.5625 3.1249 3.6375C4.05824 2.7125 5.15407 1.97917 6.4124 1.4375C7.67074 0.895833 9.03324 0.625 10.4999 0.625C11.9499 0.625 13.3082 0.895833 14.5749 1.4375C15.8416 1.97917 16.9374 2.7125 17.8624 3.6375C18.7874 4.5625 19.5207 5.65417 20.0624 6.9125C20.6041 8.17083 20.8749 9.53333 20.8749 11C20.8749 12.4667 20.6041 13.8292 20.0624 15.0875C19.5207 16.3458 18.7874 17.4417 17.8624 18.375C16.9374 19.3083 15.8416 20.0375 14.5749 20.5625C13.3082 21.0875 11.9499 21.35 10.4999 21.35ZM10.4999 19.375C12.7999 19.375 14.7707 18.5583 16.4124 16.925C18.0541 15.2917 18.8749 13.3167 18.8749 11C18.8749 8.7 18.0541 6.72917 16.4124 5.0875C14.7707 3.44583 12.7999 2.625 10.4999 2.625C8.1999 2.625 6.22907 3.44583 4.5874 5.0875C2.94574 6.72917 2.1249 8.7 2.1249 11C2.1249 13.3167 2.94574 15.2917 4.5874 16.925C6.22907 18.5583 8.1999 19.375 10.4999 19.375Z" fill="white"/>
</svg>
